<svg xmlns="http://www.w3.org/2000/svg" xmlns:xlink="http://www.w3.org/1999/xlink" xmlns:lucid="lucid" width="360" height="231"><g transform="translate(-9 -14)" lucid:page-tab-id="0_0"><path d="M20 35c0-8.28 6.72-15 15-15h310c8.28 0 15 6.72 15 15v190c0 8.28-6.72 15-15 15H35c-8.28 0-15-6.72-15-15z" stroke="#000" stroke-width="2" fill="#c1e4f7"/><use xlink:href="#a" transform="matrix(1,0,0,1,25,25) translate(134.3641975308642 12.444444444444446)"/><use xlink:href="#b" transform="matrix(1,0,0,1,25,25) translate(184.44444444444446 12.444444444444446)"/><path d="M20 45h272v161.2H20z" stroke="#000" stroke-opacity="0" stroke-width="2" fill="#fff" fill-opacity="0"/><use xlink:href="#c" transform="matrix(1,0,0,1,25,49.99999999999997) translate(0 14.4)"/><use xlink:href="#d" transform="matrix(1,0,0,1,25,49.99999999999997) translate(41.65 14.4)"/><use xlink:href="#e" transform="matrix(1,0,0,1,25,49.99999999999997) translate(0 36)"/><use xlink:href="#f" transform="matrix(1,0,0,1,25,49.99999999999997) translate(0 57.6)"/><use xlink:href="#e" transform="matrix(1,0,0,1,25,49.99999999999997) translate(0 79.20000000000002)"/><use xlink:href="#g" transform="matrix(1,0,0,1,25,49.99999999999997) translate(0 100.80000000000001)"/><use xlink:href="#e" transform="matrix(1,0,0,1,25,49.99999999999997) translate(0 122.4)"/><use xlink:href="#h" transform="matrix(1,0,0,1,25,49.99999999999997) translate(0 144)"/><path d="M28.5 80.16c0-6.5 5.26-11.74 11.74-11.74h299.52c6.48 0 11.74 5.25 11.74 11.74 0 6.48-5.26 11.74-11.74 11.74H40.24c-6.48 0-11.74-5.26-11.74-11.74z" stroke="#000" stroke-width="2" fill="#99d2f2"/><g><use xlink:href="#i" transform="matrix(1,0,0,1,33.50000000000003,73.41666666666669) translate(71.5898765432099 12.902222222222223)"/></g><path d="M28.5 166.26c0-6.48 5.26-11.74 11.74-11.74h299.52c6.48 0 11.74 5.26 11.74 11.74S346.24 178 339.76 178H40.24c-6.48 0-11.74-5.26-11.74-11.74z" stroke="#000" stroke-width="2" fill="#99d2f2"/><g><use xlink:href="#j" transform="matrix(1,0,0,1,33.50000000000003,159.52083333333337) translate(74.61395061728395 12.902222222222223)"/></g><path d="M28.5 123.26c0-6.48 5.26-11.74 11.74-11.74h299.52c6.48 0 11.74 5.26 11.74 11.74S346.24 135 339.76 135H40.24c-6.48 0-11.74-5.26-11.74-11.74z" stroke="#000" stroke-width="2" fill="#99d2f2"/><g><use xlink:href="#k" transform="matrix(1,0,0,1,33.50000000000003,116.52083333333337) translate(143.79512345679012 12.902222222222223)"/></g><path d="M28.5 208.26c0-6.48 5.26-11.74 11.74-11.74h299.52c6.48 0 11.74 5.26 11.74 11.74S346.24 220 339.76 220H40.24c-6.48 0-11.74-5.26-11.74-11.74z" stroke="#000" stroke-width="2" fill="#99d2f2"/><g><use xlink:href="#l" transform="matrix(1,0,0,1,33.50000000000003,201.52083333333326) translate(1.9046913580246871 12.902222222222223)"/></g><defs><path d="M24-248c93 1 206-16 204 79-1 75-69 88-152 82V0H24v-248zm52 121c47 0 100 7 100-41 0-47-54-39-100-39v80" id="m"/><path d="M110-194c64 0 96 36 96 99 0 64-35 99-97 99-61 0-95-36-95-99 0-62 34-99 96-99zm-1 164c35 0 45-28 45-65 0-40-10-65-43-65-34 0-45 26-45 65 0 36 10 65 43 65" id="n"/><path d="M25 0v-261h50V0H25" id="o"/><path d="M25-224v-37h50v37H25zM25 0v-190h50V0H25" id="p"/><path d="M190-63c-7 42-38 67-86 67-59 0-84-38-90-98-12-110 154-137 174-36l-49 2c-2-19-15-32-35-32-30 0-35 28-38 64-6 74 65 87 74 30" id="q"/><path d="M123 10C108 53 80 86 19 72V37c35 8 53-11 59-39L3-190h52l48 148c12-52 28-100 44-148h51" id="r"/><g id="a"><use transform="matrix(0.04320987654320988,0,0,0.04320987654320988,0,0)" xlink:href="#m"/><use transform="matrix(0.04320987654320988,0,0,0.04320987654320988,10.370370370370372,0)" xlink:href="#n"/><use transform="matrix(0.04320987654320988,0,0,0.04320987654320988,19.833333333333336,0)" xlink:href="#o"/><use transform="matrix(0.04320987654320988,0,0,0.04320987654320988,24.154320987654323,0)" xlink:href="#p"/><use transform="matrix(0.04320987654320988,0,0,0.04320987654320988,28.47530864197531,0)" xlink:href="#q"/><use transform="matrix(0.04320987654320988,0,0,0.04320987654320988,37.117283950617285,0)" xlink:href="#r"/></g><path d="M199 0l-22-63H83L61 0H9l90-248h61L250 0h-51zm-33-102l-36-108c-10 38-24 72-36 108h72" id="s"/><use transform="matrix(0.04320987654320988,0,0,0.04320987654320988,0,0)" xlink:href="#s" id="b"/><path d="M147 0H94L2-248h55l64 206c17-72 42-137 63-206h54" id="t"/><path d="M137-138c1-29-70-34-71-4 15 46 118 7 119 86 1 83-164 76-172 9l43-7c4 19 20 25 44 25 33 8 57-30 24-41C81-84 22-81 20-136c-2-80 154-74 161-7" id="u"/><path d="M133-34C117-15 103 5 69 4 32 3 11-16 11-54c-1-60 55-63 116-61 1-26-3-47-28-47-18 1-26 9-28 27l-52-2c7-38 36-58 82-57s74 22 75 68l1 82c-1 14 12 18 25 15v27c-30 8-71 5-69-32zm-48 3c29 0 43-24 42-57-32 0-66-3-65 30 0 17 8 27 23 27" id="v"/><g id="c"><use transform="matrix(0.05,0,0,0.05,0,0)" xlink:href="#t"/><use transform="matrix(0.05,0,0,0.05,11.65,0)" xlink:href="#p"/><use transform="matrix(0.05,0,0,0.05,16.65,0)" xlink:href="#u"/><use transform="matrix(0.05,0,0,0.05,26.649999999999995,0)" xlink:href="#v"/></g><path d="M136-208V0H84v-208H4v-40h212v40h-80" id="w"/><path d="M135-194c53 0 70 44 70 98 0 56-19 98-73 100-31 1-45-17-59-34 3 33 2 69 2 105H25l-1-265h48c2 10 0 23 3 31 11-24 29-35 60-35zM114-30c33 0 39-31 40-66 0-38-9-64-40-64-56 0-55 130 0 130" id="x"/><path d="M185-48c-13 30-37 53-82 52C43 2 14-33 14-96s30-98 90-98c62 0 83 45 84 108H66c0 31 8 55 39 56 18 0 30-7 34-22zm-45-69c5-46-57-63-70-21-2 6-4 13-4 21h74" id="y"/><path d="M35-132v-50h50v50H35zM35 0v-49h50V0H35" id="z"/><g id="d"><use transform="matrix(0.05,0,0,0.05,0,0)" xlink:href="#w"/><use transform="matrix(0.05,0,0,0.05,9.600000000000001,0)" xlink:href="#r"/><use transform="matrix(0.05,0,0,0.05,19.6,0)" xlink:href="#x"/><use transform="matrix(0.05,0,0,0.05,30.55,0)" xlink:href="#y"/><use transform="matrix(0.05,0,0,0.05,40.550000000000004,0)" xlink:href="#z"/></g><path d="M182-130c37 4 62 22 62 59C244 23 116-4 24 0v-248c84 5 203-23 205 63 0 31-19 50-47 55zM76-148c40-3 101 13 101-30 0-44-60-28-101-31v61zm0 110c48-3 116 14 116-37 0-48-69-32-116-35v72" id="A"/><g id="f"><use transform="matrix(0.05,0,0,0.05,0,0)" xlink:href="#A"/><use transform="matrix(0.05,0,0,0.05,12.950000000000001,0)" xlink:href="#r"/><use transform="matrix(0.05,0,0,0.05,22.950000000000003,0)" xlink:href="#z"/></g><path d="M169-182c-1-43-94-46-97-3 18 66 151 10 154 114 3 95-165 93-204 36-6-8-10-19-12-30l50-8c3 46 112 56 116 5-17-69-150-10-154-114-4-87 153-88 188-35 5 8 8 18 10 28" id="B"/><path d="M85 4C-2 5 27-109 22-190h50c7 57-23 150 33 157 60-5 35-97 40-157h50l1 190h-47c-2-12 1-28-3-38-12 25-28 42-61 42" id="C"/><path d="M135-150c-39-12-60 13-60 57V0H25l-1-190h47c2 13-1 29 3 40 6-28 27-53 61-41v41" id="D"/><g id="g"><use transform="matrix(0.05,0,0,0.05,0,0)" xlink:href="#B"/><use transform="matrix(0.05,0,0,0.05,12,0)" xlink:href="#n"/><use transform="matrix(0.05,0,0,0.05,22.950000000000003,0)" xlink:href="#C"/><use transform="matrix(0.05,0,0,0.05,33.900000000000006,0)" xlink:href="#D"/><use transform="matrix(0.05,0,0,0.05,40.900000000000006,0)" xlink:href="#q"/><use transform="matrix(0.05,0,0,0.05,50.900000000000006,0)" xlink:href="#y"/><use transform="matrix(0.05,0,0,0.05,60.900000000000006,0)" xlink:href="#z"/></g><g id="h"><use transform="matrix(0.05,0,0,0.05,0,0)" xlink:href="#t"/><use transform="matrix(0.05,0,0,0.05,11,0)" xlink:href="#v"/><use transform="matrix(0.05,0,0,0.05,21,0)" xlink:href="#o"/><use transform="matrix(0.05,0,0,0.05,26,0)" xlink:href="#C"/><use transform="matrix(0.05,0,0,0.05,36.95,0)" xlink:href="#y"/><use transform="matrix(0.05,0,0,0.05,46.95,0)" xlink:href="#z"/></g><path d="M212-179c-10-28-35-45-73-45-59 0-87 40-87 99 0 60 29 101 89 101 43 0 62-24 78-52l27 14C228-24 195 4 139 4 59 4 22-46 18-125c-6-104 99-153 187-111 19 9 31 26 39 46" id="E"/><path d="M100-194c62-1 85 37 85 99 1 63-27 99-86 99S16-35 15-95c0-66 28-99 85-99zM99-20c44 1 53-31 53-75 0-43-8-75-51-75s-53 32-53 75 10 74 51 75" id="F"/><path d="M117-194c89-4 53 116 60 194h-32v-121c0-31-8-49-39-48C34-167 62-67 57 0H25l-1-190h30c1 10-1 24 2 32 11-22 29-35 61-36" id="G"/><path d="M59-47c-2 24 18 29 38 22v24C64 9 27 4 27-40v-127H5v-23h24l9-43h21v43h35v23H59v120" id="H"/><path d="M114-163C36-179 61-72 57 0H25l-1-190h30c1 12-1 29 2 39 6-27 23-49 58-41v29" id="I"/><path d="M24 0v-261h32V0H24" id="J"/><path d="M100-194c63 0 86 42 84 106H49c0 40 14 67 53 68 26 1 43-12 49-29l28 8c-11 28-37 45-77 45C44 4 14-33 15-96c1-61 26-98 85-98zm52 81c6-60-76-77-97-28-3 7-6 17-6 28h103" id="K"/><path d="M85-194c31 0 48 13 60 33l-1-100h32l1 261h-30c-2-10 0-23-3-31C134-8 116 4 85 4 32 4 16-35 15-94c0-66 23-100 70-100zm9 24c-40 0-46 34-46 75 0 40 6 74 45 74 42 0 51-32 51-76 0-42-9-74-50-73" id="L"/><path d="M205 0l-28-72H64L36 0H1l101-248h38L239 0h-34zm-38-99l-47-123c-12 45-31 82-46 123h93" id="M"/><path d="M96-169c-40 0-48 33-48 73s9 75 48 75c24 0 41-14 43-38l32 2c-6 37-31 61-74 61-59 0-76-41-82-99-10-93 101-131 147-64 4 7 5 14 7 22l-32 3c-4-21-16-35-41-35" id="N"/><path d="M135-143c-3-34-86-38-87 0 15 53 115 12 119 90S17 21 10-45l28-5c4 36 97 45 98 0-10-56-113-15-118-90-4-57 82-63 122-42 12 7 21 19 24 35" id="O"/><path d="M143 4C61 4 22-44 18-125c-5-107 100-154 193-111 17 8 29 25 37 43l-32 9c-13-25-37-40-76-40-61 0-88 39-88 99 0 61 29 100 91 101 35 0 62-11 79-27v-45h-74v-28h105v86C228-13 192 4 143 4" id="P"/><path d="M141-36C126-15 110 5 73 4 37 3 15-17 15-53c-1-64 63-63 125-63 3-35-9-54-41-54-24 1-41 7-42 31l-33-3c5-37 33-52 76-52 45 0 72 20 72 64v82c-1 20 7 32 28 27v20c-31 9-61-2-59-35zM48-53c0 20 12 33 32 33 41-3 63-29 60-74-43 2-92-5-92 41" id="Q"/><g id="i"><use transform="matrix(0.043827160493827164,0,0,0.043827160493827164,0,0)" xlink:href="#E"/><use transform="matrix(0.043827160493827164,0,0,0.043827160493827164,11.351234567901235,0)" xlink:href="#F"/><use transform="matrix(0.043827160493827164,0,0,0.043827160493827164,20.116666666666667,0)" xlink:href="#G"/><use transform="matrix(0.043827160493827164,0,0,0.043827160493827164,28.882098765432097,0)" xlink:href="#H"/><use transform="matrix(0.043827160493827164,0,0,0.043827160493827164,33.26481481481481,0)" xlink:href="#I"/><use transform="matrix(0.043827160493827164,0,0,0.043827160493827164,38.480246913580245,0)" xlink:href="#F"/><use transform="matrix(0.043827160493827164,0,0,0.043827160493827164,47.245679012345676,0)" xlink:href="#J"/><use transform="matrix(0.043827160493827164,0,0,0.043827160493827164,50.70802469135802,0)" xlink:href="#J"/><use transform="matrix(0.043827160493827164,0,0,0.043827160493827164,54.170370370370364,0)" xlink:href="#K"/><use transform="matrix(0.043827160493827164,0,0,0.043827160493827164,62.935802469135794,0)" xlink:href="#L"/><use transform="matrix(0.043827160493827164,0,0,0.043827160493827164,71.70123456790122,0)" xlink:href="#M"/><use transform="matrix(0.043827160493827164,0,0,0.043827160493827164,82.21975308641974,0)" xlink:href="#N"/><use transform="matrix(0.043827160493827164,0,0,0.043827160493827164,90.10864197530863,0)" xlink:href="#N"/><use transform="matrix(0.043827160493827164,0,0,0.043827160493827164,97.99753086419751,0)" xlink:href="#K"/><use transform="matrix(0.043827160493827164,0,0,0.043827160493827164,106.76296296296294,0)" xlink:href="#O"/><use transform="matrix(0.043827160493827164,0,0,0.043827160493827164,114.65185185185184,0)" xlink:href="#O"/><use transform="matrix(0.043827160493827164,0,0,0.043827160493827164,122.54074074074072,0)" xlink:href="#P"/><use transform="matrix(0.043827160493827164,0,0,0.043827160493827164,134.8123456790123,0)" xlink:href="#I"/><use transform="matrix(0.043827160493827164,0,0,0.043827160493827164,140.02777777777774,0)" xlink:href="#Q"/><use transform="matrix(0.043827160493827164,0,0,0.043827160493827164,148.7932098765432,0)" xlink:href="#G"/><use transform="matrix(0.043827160493827164,0,0,0.043827160493827164,157.55864197530863,0)" xlink:href="#H"/><use transform="matrix(0.043827160493827164,0,0,0.043827160493827164,161.94135802469134,0)" xlink:href="#O"/></g><path d="M106-169C34-169 62-67 57 0H25v-261h32l-1 103c12-21 28-36 61-36 89 0 53 116 60 194h-32v-121c2-32-8-49-39-48" id="R"/><path d="M115-194c55 1 70 41 70 98S169 2 115 4C84 4 66-9 55-30l1 105H24l-1-265h31l2 30c10-21 28-34 59-34zm-8 174c40 0 45-34 45-75s-6-73-45-74c-42 0-51 32-51 76 0 43 10 73 51 73" id="S"/><path d="M33-154v-36h34v36H33zM33 0v-36h34V0H33" id="T"/><path d="M0 4l72-265h28L28 4H0" id="U"/><path d="M33 0v-38h34V0H33" id="V"/><path d="M141 0L90-78 38 0H4l68-98-65-92h35l48 74 47-74h35l-64 92 68 98h-35" id="W"/><path d="M210-169c-67 3-38 105-44 169h-31v-121c0-29-5-50-35-48C34-165 62-65 56 0H25l-1-190h30c1 10-1 24 2 32 10-44 99-50 107 0 11-21 27-35 58-36 85-2 47 119 55 194h-31v-121c0-29-5-49-35-48" id="X"/><path d="M177-190C167-65 218 103 67 71c-23-6-38-20-44-43l32-5c15 47 100 32 89-28v-30C133-14 115 1 83 1 29 1 15-40 15-95c0-56 16-97 71-98 29-1 48 16 59 35 1-10 0-23 2-32h30zM94-22c36 0 50-32 50-73 0-42-14-75-50-75-39 0-46 34-46 75s6 73 46 73" id="Y"/><g id="j"><use transform="matrix(0.043827160493827164,0,0,0.043827160493827164,0,0)" xlink:href="#R"/><use transform="matrix(0.043827160493827164,0,0,0.043827160493827164,8.765432098765432,0)" xlink:href="#H"/><use transform="matrix(0.043827160493827164,0,0,0.043827160493827164,13.148148148148149,0)" xlink:href="#H"/><use transform="matrix(0.043827160493827164,0,0,0.043827160493827164,17.530864197530864,0)" xlink:href="#S"/><use transform="matrix(0.043827160493827164,0,0,0.043827160493827164,26.296296296296298,0)" xlink:href="#O"/><use transform="matrix(0.043827160493827164,0,0,0.043827160493827164,34.18518518518519,0)" xlink:href="#T"/><use transform="matrix(0.043827160493827164,0,0,0.043827160493827164,38.567901234567906,0)" xlink:href="#U"/><use transform="matrix(0.043827160493827164,0,0,0.043827160493827164,42.95061728395062,0)" xlink:href="#U"/><use transform="matrix(0.043827160493827164,0,0,0.043827160493827164,47.333333333333336,0)" xlink:href="#L"/><use transform="matrix(0.043827160493827164,0,0,0.043827160493827164,56.09876543209877,0)" xlink:href="#Q"/><use transform="matrix(0.043827160493827164,0,0,0.043827160493827164,64.8641975308642,0)" xlink:href="#N"/><use transform="matrix(0.043827160493827164,0,0,0.043827160493827164,72.75308641975309,0)" xlink:href="#V"/><use transform="matrix(0.043827160493827164,0,0,0.043827160493827164,77.13580246913581,0)" xlink:href="#K"/><use transform="matrix(0.043827160493827164,0,0,0.043827160493827164,85.90123456790124,0)" xlink:href="#W"/><use transform="matrix(0.043827160493827164,0,0,0.043827160493827164,93.79012345679013,0)" xlink:href="#Q"/><use transform="matrix(0.043827160493827164,0,0,0.043827160493827164,102.55555555555556,0)" xlink:href="#X"/><use transform="matrix(0.043827160493827164,0,0,0.043827160493827164,115.65987654320989,0)" xlink:href="#S"/><use transform="matrix(0.043827160493827164,0,0,0.043827160493827164,124.42530864197529,0)" xlink:href="#J"/><use transform="matrix(0.043827160493827164,0,0,0.043827160493827164,127.88765432098765,0)" xlink:href="#K"/><use transform="matrix(0.043827160493827164,0,0,0.043827160493827164,136.6530864197531,0)" xlink:href="#V"/><use transform="matrix(0.043827160493827164,0,0,0.043827160493827164,141.0358024691358,0)" xlink:href="#F"/><use transform="matrix(0.043827160493827164,0,0,0.043827160493827164,149.80123456790125,0)" xlink:href="#I"/><use transform="matrix(0.043827160493827164,0,0,0.043827160493827164,155.01666666666668,0)" xlink:href="#Y"/></g><g id="k"><use transform="matrix(0.043827160493827164,0,0,0.043827160493827164,0,0)" xlink:href="#L"/><use transform="matrix(0.043827160493827164,0,0,0.043827160493827164,8.765432098765432,0)" xlink:href="#Q"/><use transform="matrix(0.043827160493827164,0,0,0.043827160493827164,17.530864197530864,0)" xlink:href="#N"/></g><path d="M84 4C-5 8 30-112 23-190h32v120c0 31 7 50 39 49 72-2 45-101 50-169h31l1 190h-30c-1-10 1-25-2-33-11 22-28 36-60 37" id="Z"/><path d="M108 0H70L1-190h34L89-25l56-165h34" id="aa"/><path d="M24-231v-30h32v30H24zM24 0v-190h32V0H24" id="ab"/><path d="M54-142c48-35 137-8 131 61C196 18 31 33 14-55l32-4c7 23 22 37 52 37 35-1 51-22 54-58 4-55-73-65-99-34H22l8-134h141v27H59" id="ac"/><path d="M101-251c68 0 85 55 85 127S166 4 100 4C33 4 14-52 14-124c0-73 17-127 87-127zm-1 229c47 0 54-49 54-102s-4-102-53-102c-51 0-55 48-55 102 0 53 5 102 54 102" id="ad"/><g id="l"><use transform="matrix(0.043827160493827164,0,0,0.043827160493827164,0,0)" xlink:href="#R"/><use transform="matrix(0.043827160493827164,0,0,0.043827160493827164,8.765432098765432,0)" xlink:href="#H"/><use transform="matrix(0.043827160493827164,0,0,0.043827160493827164,13.148148148148149,0)" xlink:href="#H"/><use transform="matrix(0.043827160493827164,0,0,0.043827160493827164,17.530864197530864,0)" xlink:href="#S"/><use transform="matrix(0.043827160493827164,0,0,0.043827160493827164,26.296296296296298,0)" xlink:href="#O"/><use transform="matrix(0.043827160493827164,0,0,0.043827160493827164,34.18518518518519,0)" xlink:href="#T"/><use transform="matrix(0.043827160493827164,0,0,0.043827160493827164,38.567901234567906,0)" xlink:href="#U"/><use transform="matrix(0.043827160493827164,0,0,0.043827160493827164,42.95061728395062,0)" xlink:href="#U"/><use transform="matrix(0.043827160493827164,0,0,0.043827160493827164,47.333333333333336,0)" xlink:href="#H"/><use transform="matrix(0.043827160493827164,0,0,0.043827160493827164,51.71604938271605,0)" xlink:href="#I"/><use transform="matrix(0.043827160493827164,0,0,0.043827160493827164,56.931481481481484,0)" xlink:href="#Z"/><use transform="matrix(0.043827160493827164,0,0,0.043827160493827164,65.69691358024691,0)" xlink:href="#O"/><use transform="matrix(0.043827160493827164,0,0,0.043827160493827164,73.5858024691358,0)" xlink:href="#H"/><use transform="matrix(0.043827160493827164,0,0,0.043827160493827164,77.96851851851852,0)" xlink:href="#K"/><use transform="matrix(0.043827160493827164,0,0,0.043827160493827164,86.73395061728395,0)" xlink:href="#L"/><use transform="matrix(0.043827160493827164,0,0,0.043827160493827164,95.4993827160494,0)" xlink:href="#V"/><use transform="matrix(0.043827160493827164,0,0,0.043827160493827164,99.8820987654321,0)" xlink:href="#K"/><use transform="matrix(0.043827160493827164,0,0,0.043827160493827164,108.64753086419753,0)" xlink:href="#W"/><use transform="matrix(0.043827160493827164,0,0,0.043827160493827164,116.53641975308643,0)" xlink:href="#Q"/><use transform="matrix(0.043827160493827164,0,0,0.043827160493827164,125.30185185185184,0)" xlink:href="#X"/><use transform="matrix(0.043827160493827164,0,0,0.043827160493827164,138.40617283950618,0)" xlink:href="#S"/><use transform="matrix(0.043827160493827164,0,0,0.043827160493827164,147.17160493827163,0)" xlink:href="#J"/><use transform="matrix(0.043827160493827164,0,0,0.043827160493827164,150.63395061728397,0)" xlink:href="#K"/><use transform="matrix(0.043827160493827164,0,0,0.043827160493827164,159.39938271604942,0)" xlink:href="#V"/><use transform="matrix(0.043827160493827164,0,0,0.043827160493827164,163.78209876543212,0)" xlink:href="#F"/><use transform="matrix(0.043827160493827164,0,0,0.043827160493827164,172.54753086419757,0)" xlink:href="#I"/><use transform="matrix(0.043827160493827164,0,0,0.043827160493827164,177.762962962963,0)" xlink:href="#Y"/><use transform="matrix(0.043827160493827164,0,0,0.043827160493827164,186.52839506172845,0)" xlink:href="#U"/><use transform="matrix(0.043827160493827164,0,0,0.043827160493827164,190.91111111111115,0)" xlink:href="#aa"/><use transform="matrix(0.043827160493827164,0,0,0.043827160493827164,198.80000000000007,0)" xlink:href="#ab"/><use transform="matrix(0.043827160493827164,0,0,0.043827160493827164,202.2623456790124,0)" xlink:href="#O"/><use transform="matrix(0.043827160493827164,0,0,0.043827160493827164,210.1512345679013,0)" xlink:href="#Q"/><use transform="matrix(0.043827160493827164,0,0,0.043827160493827164,218.9166666666667,0)" xlink:href="#O"/><use transform="matrix(0.043827160493827164,0,0,0.043827160493827164,226.8055555555556,0)" xlink:href="#U"/><use transform="matrix(0.043827160493827164,0,0,0.043827160493827164,231.18827160493828,0)" xlink:href="#L"/><use transform="matrix(0.043827160493827164,0,0,0.043827160493827164,239.95370370370375,0)" xlink:href="#Q"/><use transform="matrix(0.043827160493827164,0,0,0.043827160493827164,248.7191358024692,0)" xlink:href="#H"/><use transform="matrix(0.043827160493827164,0,0,0.043827160493827164,253.1018518518519,0)" xlink:href="#Q"/><use transform="matrix(0.043827160493827164,0,0,0.043827160493827164,261.8672839506173,0)" xlink:href="#O"/><use transform="matrix(0.043827160493827164,0,0,0.043827160493827164,269.75617283950623,0)" xlink:href="#K"/><use transform="matrix(0.043827160493827164,0,0,0.043827160493827164,278.52160493827165,0)" xlink:href="#H"/><use transform="matrix(0.043827160493827164,0,0,0.043827160493827164,282.9043209876544,0)" xlink:href="#ac"/><use transform="matrix(0.043827160493827164,0,0,0.043827160493827164,291.6697530864198,0)" xlink:href="#ad"/><use transform="matrix(0.043827160493827164,0,0,0.043827160493827164,300.4351851851852,0)" xlink:href="#ad"/></g></defs></g></svg>