<svg xmlns="http://www.w3.org/2000/svg" xmlns:lucid="lucid" width="157" height="157"><g transform="translate(-171 -92)" lucid:page-tab-id="0_0"><path d="M204.9 109.75v46.54h40v-46.55h-40zm48.65 0v46.54h39.8v-46.55h-39.8zm-48.65 55.88v18c0 11.52 10.5 24.3 22.47 33.9 6.08 4.8 12.16 8.65 16.8 11.4.2.13.4.27.72.4v-63.7h-40zm48.65 0v63.57c.2-.14.3-.14.4-.27 4.65-2.6 10.84-6.6 16.82-11.4 11.95-9.47 22.57-22.38 22.57-33.9v-18h-39.8z" stroke="#000" stroke-opacity="0" stroke-width=".21" fill="url(#a)"/><path d="M197.58 101.37c-.3 0-.52.28-.52.55v80.6c0 31.17 50.3 56.02 51.54 56.16 1.24.13 51.54-25 51.54-56.16v-80.6c0-.27-.2-.55-.5-.55H197.57zm6.8 7.28h40v46.54H204.9c-.2 0-.3 0-.52.13v-46.68zm48.76 0h39.68v46.54h-39.68v-46.55zm-48.76 56.02h40v63.57c-.2-.14-.4-.14-.72-.27-4.64-2.75-10.72-6.73-16.7-11.4-12.06-9.6-22.58-22.38-22.58-34.05v-17.85zm48.76 0h39.68v17.85c0 11.67-10.5 24.44-22.57 34.05-5.98 4.8-12.06 8.8-16.7 11.4-.2.13-.3.13-.4.27v-63.57z" stroke="#000" stroke-opacity="0" stroke-width=".99" fill="url(#b)"/><path d="M204.07 108.24v47.23h1.22v-46h39.28v-1.23h-40.5zm48.86 0v46.82h1.24v-45.6h38.65v-1.22h-39.9zm-48.86 56.15v18.12c0 9.06 6.6 19.08 15.16 27.6-8.04-8.24-13.92-17.72-13.92-26.5v-18H244.18v-1.1H204.6c-.22 0-.32 0-.53-.13zm48.86.13v63.85c.2-.14.3-.14.42-.28.3-.13.5-.27.82-.4v-62.07h38.65v-1.1h-39.9z" stroke="#000" stroke-opacity="0" stroke-width=".21" fill="url(#c)"/><path d="M265.5 160.7c0 8.64-7.1 15.78-15.76 15.78s-15.67-7.14-15.67-15.8c0-8.64 7-15.78 15.67-15.78 8.66 0 15.77 7.14 15.77 15.8" stroke="#000" stroke-opacity="0" stroke-width=".21" fill="#b3b3b3"/><path d="M264.37 160.55c0 7.96-6.6 14.42-14.63 14.42-8.04 0-14.54-6.46-14.54-14.42s6.5-14.42 14.54-14.42 14.63 6.46 14.63 14.42" stroke="#000" stroke-opacity="0" stroke-width=".2" fill="url(#d)"/><path d="M250.05 145.17c-8.66 0-15.77 7.14-15.77 15.8 0 8.64 7.1 15.78 15.77 15.78 8.66 0 15.77-7.14 15.77-15.8-.1-8.64-7.1-15.78-15.77-15.78zm0 1.24c8.04 0 14.53 6.46 14.63 14.42 0 7.97-6.6 14.42-14.63 14.42-8.04 0-14.64-6.45-14.64-14.42 0-7.96 6.6-14.4 14.65-14.4z" stroke="#000" stroke-opacity="0" stroke-width=".21" fill="#333"/><path d="M249.53 144.62c-8.76 0-15.77 7.14-15.77 15.8 0 8.64 7 15.78 15.77 15.78 8.66 0 15.67-7.14 15.67-15.8 0-8.64-7-15.78-15.67-15.78zm0 1.24c8.04 0 14.54 6.45 14.54 14.4 0 7.98-6.5 14.43-14.54 14.43-8.14 0-14.64-6.46-14.64-14.43 0-7.96 6.5-14.4 14.63-14.4z" stroke="#000" stroke-opacity="0" stroke-width=".21" fill="url(#e)"/><path d="M261.5 161.5c2.57-.26 2.87 2.62.5 6.2-2.37 3.56-5.56 5.62-8.24 5.9-2.58.4-3.7-1.38-1.34-4.95 2.37-3.57 6.4-6.73 8.97-7.14" stroke="#000" stroke-opacity="0" stroke-width=".21" fill="url(#f)"/><defs><linearGradient gradientUnits="userSpaceOnUse" id="a" x1="209.86" y1="133.15" x2="281.76" y2="134.03"><stop offset="0%" stop-color="maroon"/><stop offset="50%" stop-color="#ff0c0c"/><stop offset="100%" stop-color="maroon"/></linearGradient><linearGradient gradientUnits="userSpaceOnUse" id="b" x1="182.1" y1="169.83" x2="243.2" y2="151.92"><stop offset="0%" stop-color="#898989"/><stop offset="50%" stop-color="#e6e6e6"/><stop offset="100%" stop-color="#a4a4a4"/></linearGradient><linearGradient gradientUnits="userSpaceOnUse" id="c" x1="205.52" y1="151.76" x2="231.44" y2="166.44"><stop offset="0%" stop-color="#898989"/><stop offset="50%" stop-color="#e6e6e6"/><stop offset="100%" stop-color="#a4a4a4"/></linearGradient><radialGradient gradientUnits="userSpaceOnUse" id="d" fx="246.98" fy="157.19" cx="246.98" cy="157.19" r="14.52"><stop offset="0%" stop-color="#fff"/><stop offset="77.78%" stop-color="#cbcbcb"/><stop offset="100%" stop-color="#8c8c8c"/></radialGradient><linearGradient gradientUnits="userSpaceOnUse" id="e" x1="229.94" y1="155" x2="247.92" y2="165.16"><stop offset="0%" stop-color="#898989"/><stop offset="50%" stop-color="#e6e6e6"/><stop offset="100%" stop-color="#a4a4a4"/></linearGradient><radialGradient gradientUnits="userSpaceOnUse" id="f" fx="259.85" fy="169.5" cx="259.85" cy="169.5" r="8.64"><stop offset="0%" stop-color="#fff"/><stop offset="100%" stop-color="#fff" stop-opacity="0"/></radialGradient></defs></g></svg>